<svg width="55" height="55" xmlns="http://www.w3.org/2000/svg" xmlns:xlink="http://www.w3.org/1999/xlink" xmlns:svgjs="http://svgjs.com/svgjs" viewBox="139 1788 55 55"><svg width="55" height="55" xmlns="http://www.w3.org/2000/svg" xmlns:xlink="http://www.w3.org/1999/xlink" xmlns:svgjs="http://svgjs.com/svgjs" fill="#f5c506" x="139" y="1788"><svg xmlns="http://www.w3.org/2000/svg" xmlns:xlink="http://www.w3.org/1999/xlink" width="55" height="55"><path paint-order="stroke fill markers" fill-rule="evenodd" d="M1.995 37.78l8.51-8.78-8.51-8.78h7.218L17.724 29l-8.51 8.78h-7.22zm10.955 0L21.46 29l-8.51-8.78h7.22L28.68 29l-8.51 8.78h-7.22zm43.055 0L47.495 29l8.51-8.78h-7.219L40.276 29l8.51 8.78h7.219zm-10.956 0L36.54 29l8.51-8.78h-7.218L29.32 29l8.51 8.78h7.218zM20.22 1.995l8.78 8.51 8.781-8.51v7.218L29 17.724l-8.78-8.51v-7.22zm0 10.955L29 21.46l8.781-8.51v7.22L29 28.68l-8.78-8.51v-7.22zm0 43.055l8.78-8.51 8.781 8.51v-7.219L29 40.276l-8.78 8.51v7.22zm0-10.956L29 36.54l8.781 8.51v-7.218L29 29.32l-8.78 8.51v7.218z"/></svg></svg><svg width="52" height="52" xmlns="http://www.w3.org/2000/svg" xmlns:xlink="http://www.w3.org/1999/xlink" xmlns:svgjs="http://svgjs.com/svgjs" fill="#f5c506" opacity=".502" x="140" y="1789"><svg xmlns="http://www.w3.org/2000/svg" width="52" height="52"><path paint-order="stroke fill markers" fill-rule="evenodd" d="M1.414 14.5l12.219-.464-.082-12.228 5.217 4.99.082 12.227-12.219.464-5.217-4.99zm7.918 7.572l12.219-.464-.082-12.228 5.217 4.99.082 12.227-12.219.464-5.217-4.99zM40.45 51.828l-.082-12.227 12.219-.464-5.217-4.99-12.22.465.083 12.227 5.217 4.99zm-7.918-7.572l-.082-12.227 12.219-.464-5.217-4.99-12.22.465.083 12.227 5.217 4.99zm6.787-43.023l.464 12.218 12.228-.082-4.99 5.217-12.227.083-.464-12.22 4.99-5.216zM31.747 9.15l.463 12.22 12.228-.083-4.989 5.217-12.228.083-.464-12.22 4.99-5.217zM1.99 40.267l12.227-.082.464 12.219 4.99-5.217-.464-12.22-12.228.083-4.99 5.217zm7.572-7.918l12.227-.082.464 12.219 4.99-5.217-.465-12.22-12.227.083-4.99 5.217z"/></svg></svg></svg>