<svg id="SvgjsSvg79681" width="82" height="84" xmlns="http://www.w3.org/2000/svg" version="1.1" xmlns:xlink="http://www.w3.org/1999/xlink" xmlns:svgjs="http://svgjs.com/svgjs" viewBox="0 0 82 84" fill="#f5c506" opacity="1"><defs id="SvgjsDefs79682"></defs><svg version="1.1" xmlns="http://www.w3.org/2000/svg" xmlns:xlink="http://www.w3.org/1999/xlink" width="82" height="84"><g><path fill="#f5c506" stroke="none" paint-order="stroke fill markers" fill-rule="evenodd" d=" M 61.23124408721924 52.80597645044327 C 61.23124408721924 52.80597645044327 61.23124408721924 76.9514172077179 61.23124408721924 76.9514172077179 C 61.23124408721924 76.9514172077179 50.693142890930176 63.2770556807518 50.693142890930176 63.2770556807518 C 50.693142890930176 63.2770556807518 28.83123207092285 84.9998607635498 28.83123207092285 84.9998607635498 C 28.83123207092285 84.9998607635498 1.9999866485595703 1.9998737573623657 1.9999866485595703 1.9998737573623657 C 1.9999866485595703 1.9998737573623657 82.99993920326233 31.175646781921387 82.99993920326233 31.175646781921387 C 82.99993920326233 31.175646781921387 61.23124408721924 52.80597645044327 61.23124408721924 52.80597645044327 Z M 9.593695878982544 9.880650579929352 C 9.593695878982544 9.880650579929352 55.66247749328613 58.33919882774353 55.66247749328613 58.33919882774353 C 55.66247749328613 58.33919882774353 61.0624794960022 52.97353309392929 61.0624794960022 52.97353309392929 C 61.0624794960022 52.97353309392929 9.593695878982544 9.880650579929352 9.593695878982544 9.880650579929352 Z"></path></g></svg></svg>