<svg id="SvgjsSvg8230" width="12" height="12" xmlns="http://www.w3.org/2000/svg" version="1.1" xmlns:xlink="http://www.w3.org/1999/xlink" xmlns:svgjs="http://svgjs.com/svgjs" viewBox="0 0 12 12" fill="#ffffff" opacity="0.7019607843137254"><defs id="SvgjsDefs8231"></defs><svg version="1.1" xmlns="http://www.w3.org/2000/svg" xmlns:xlink="http://www.w3.org/1999/xlink" width="12" height="12"><g><path fill="#ffffff" stroke="none" paint-order="stroke fill markers" fill-rule="evenodd" d=" M 12.999948978424072 8.999898791313171 C 12.999948978424072 8.999898791313171 8.999887228012085 8.999898791313171 8.999887228012085 8.999898791313171 C 8.999887228012085 8.999898791313171 8.999887228012085 12.999900817871094 8.999887228012085 12.999900817871094 C 8.999887228012085 12.999900817871094 5.9999377727508545 12.999900817871094 5.9999377727508545 12.999900817871094 C 5.9999377727508545 12.999900817871094 5.9999377727508545 8.999898791313171 5.9999377727508545 8.999898791313171 C 5.9999377727508545 8.999898791313171 1.9999535083770752 8.999898791313171 1.9999535083770752 8.999898791313171 C 1.9999535083770752 8.999898791313171 1.9999535083770752 5.9998422265052795 1.9999535083770752 5.9998422265052795 C 1.9999535083770752 5.9998422265052795 5.9999377727508545 5.9998422265052795 5.9999377727508545 5.9998422265052795 C 5.9999377727508545 5.9998422265052795 5.9999377727508545 1.9999502897262573 5.9999377727508545 1.9999502897262573 C 5.9999377727508545 1.9999502897262573 8.999887228012085 1.9999502897262573 8.999887228012085 1.9999502897262573 C 8.999887228012085 1.9999502897262573 8.999887228012085 5.9998422265052795 8.999887228012085 5.9998422265052795 C 8.999887228012085 5.9998422265052795 12.999948978424072 5.9998422265052795 12.999948978424072 5.9998422265052795 C 12.999948978424072 5.9998422265052795 12.999948978424072 8.999898791313171 12.999948978424072 8.999898791313171 Z"></path></g></svg></svg>